<svg id="Capa_1" enable-background="new 0 0 512 512" height="512" viewBox="0 0 512 512" width="512" xmlns="http://www.w3.org/2000/svg"><g><g fill="#e19974"><path d="m289.518 203.275 120.948-197.52c3.586-5.856 11.334-7.533 17.02-3.683l11.698 7.919c5.411 3.663 6.913 10.974 3.384 16.475l-125.027 194.86c-3.677 5.731-11.372 7.276-16.976 3.407l-7.618-5.259c-5.263-3.633-6.768-10.746-3.429-16.199z"/><path d="m317.322 221.667 124.966-194.764c3.639-5.671 11.223-7.253 16.826-3.509l15.956 10.663c5.63 3.763 7.052 11.427 3.146 16.958l-133.411 188.915c-3.715 5.26-10.911 6.667-16.333 3.193l-7.511-4.813c-5.603-3.591-7.232-11.043-3.639-16.643z"/></g><path d="m442.571 26.467-125.028 194.859c-3.681 5.727-11.373 7.28-16.977 3.404l-7.62-5.255c-2.519-1.738-4.175-4.267-4.853-7.033l.874.576c5.676 3.774 13.337 2.087 16.915-3.702l121.553-197.05c1.769-2.879 2.19-6.211 1.419-9.265l10.334 6.992c5.409 3.661 6.91 10.972 3.383 16.474z" fill="#dc8758"/><path d="m478.211 51.012-133.409 188.915c-3.712 5.265-10.91 6.674-16.329 3.198l-7.517-4.812c-2.622-1.687-4.38-4.226-5.131-7.023 5.378 2.869 12.113 1.244 15.589-3.856l130.036-191.261c2.108-3.095 2.571-6.817 1.604-10.149l12.01 8.031c5.636 3.764 7.055 11.424 3.147 16.957z" fill="#dc8758"/><path d="m392.06 257.007c-1.45-8.222-5.686-15.25-11.565-20.29-4.128-3.539-6.08-8.902-5.193-14.267 1.264-7.64-.009-15.746-4.183-22.976s-10.558-12.385-17.807-15.111c-5.089-1.914-8.758-6.286-9.759-11.63-1.426-7.611-5.394-14.794-11.789-20.16s-14.158-8.027-21.901-8.109c-5.437-.058-10.38-2.912-13.148-7.591-3.943-6.665-10.128-12.057-17.973-14.912s-16.049-2.701-23.354-.13c-5.129 1.805-10.749.814-14.951-2.636-5.985-4.914-13.641-7.866-21.99-7.866s-16.005 2.951-21.99 7.866c-4.202 3.45-9.823 4.442-14.951 2.636-7.304-2.571-15.509-2.726-23.354.13-7.845 2.855-14.03 8.247-17.973 14.912-2.768 4.68-7.711 7.533-13.148 7.591-7.743.082-15.506 2.743-21.901 8.109-6.395 5.367-10.364 12.549-11.789 20.16-1.001 5.344-4.67 9.716-9.759 11.63-7.248 2.726-13.632 7.881-17.807 15.111-4.174 7.23-5.447 15.336-4.183 22.976.887 5.364-1.065 10.728-5.193 14.267-5.879 5.04-10.115 12.068-11.564 20.29z" fill="#fef1da"/><path d="m380.494 236.714c-4.123-3.537-6.077-8.895-5.193-14.262 1.265-7.64-.01-15.743-4.185-22.982-4.175-7.229-10.55-12.381-17.8-15.105-5.09-1.913-8.761-6.283-9.758-11.63-1.429-7.609-5.398-14.797-11.794-20.165s-14.159-8.021-21.902-8.103c-5.429-.062-10.375-2.91-13.141-7.599-3.949-6.663-10.129-12.051-17.974-14.91-7.846-2.848-16.051-2.694-23.352-.123-5.131 1.799-10.756.812-14.951-2.643-5.985-4.915-13.645-7.866-21.995-7.866s-16 2.951-21.985 7.866c-.082.072-.175.134-.257.206.123-.01.247-.01.37-.01 9.871 0 22.624 6.066 30.424 11.805 7.439 5.473 14.261 8.151 23.557 6.514 6.792-1.196 14.124-1.582 20.755.638 3.286 1.1 6.524 2.892 8.878 5.48 2.419 2.658 3.618 6.446 5.966 9.269 2.534 3.048 6.104 4.606 9.927 5.32 2.63.491 5.31.397 7.961.678 5.971.632 11.241 4.372 14.758 9.07 3.159 4.219 4.245 9.503 4.932 14.618.665 4.952 2.748 7.768 7.711 9.637 7.239 2.725 13.625 7.887 17.8 15.116s5.45 15.332 4.185 22.972c-.884 5.368 1.069 10.725 5.193 14.273 3.846 3.301 6.992 7.445 9.111 12.226h24.329c-1.452-8.218-5.688-15.252-11.57-20.29z" fill="#fae2c0"/><path d="m224.951 451.61h-87.651l6.481 53.493c.477 3.936 3.817 6.896 7.782 6.896h73.387 60.381c3.965 0 7.305-2.96 7.782-6.896l6.481-53.493z" fill="#554e56"/><path d="m299.599 451.609-6.488 53.491c-.473 3.938-3.815 6.9-7.774 6.9h-22.252c3.969 0 7.311-2.961 7.784-6.9l6.488-53.491z" fill="#433f43"/><path d="m405.273 259.521c-.059-2.514-2.118-4.514-4.633-4.514h-175.689-188.696c-2.515 0-4.574 2-4.633 4.514-.151 6.408-.032 19.21 2.266 35.624.984 7.026 9.014 14.714 10.947 22.846 1.688 7.102-2.853 14.544-.227 22.178 6.072 17.656 14.92 36.346 27.777 54.27 74.62 104.022 217.505 104.022 292.125 0 12.858-17.924 21.705-36.613 27.777-54.27 2.234-6.494.661-12.894 2.205-19.019 2.283-9.058 7.311-17.57 8.42-25.336 2.39-16.735 2.514-29.798 2.361-36.293z" fill="#7a6d79"/><path d="m364.514 394.437c-39.856 55.558-99.178 81.44-157.183 77.646 50.591-3.301 100.185-29.183 134.941-77.646 39.64-55.27 41.162-117.831 40.761-134.921-.062-2.509-2.118-4.514-4.637-4.514h22.242c2.519 0 4.576 2.005 4.638 4.514.15 6.409.032 19.212-2.266 35.627-1.175 8.392-5.948 16.099-8.517 26.007-1.461 5.635-.16 13.084-2.202 19.02-6.072 17.656-14.919 36.345-27.777 54.267z" fill="#685e68"/><path d="m402.91 295.813c-1.856 13.016-5.086 28.259-10.623 44.355h-347.679c-5.536-16.096-8.767-31.339-10.623-44.355z" fill="#fd9468"/><path d="m402.879 295.81c-1.648 10.952-3.885 21.719-6.858 32.468-.267.967-.555 1.943-.853 2.931-.884 2.951-1.841 5.933-2.879 8.956h-22.252c5.542-16.102 8.771-31.341 10.622-44.349.072-.506 20.095.023 22.229-.062-.003.018-.006.037-.009.056z" fill="#fe7d43"/><g fill="#fae2c0"><circle cx="222.409" cy="151.36" r="10.262"/><circle cx="254.431" cy="183.382" r="10.262"/><circle cx="130.096" cy="202.484" r="10.262"/><circle cx="305.466" cy="212.746" r="10.262"/></g></g></svg>